<?xml version="1.0" standalone="no"?>
<!DOCTYPE svg PUBLIC "-//W3C//DTD SVG 20010904//EN"
 "http://www.w3.org/TR/2001/REC-SVG-20010904/DTD/svg10.dtd">
<svg version="1.0" xmlns="http://www.w3.org/2000/svg"
 width="100.000000pt" height="100.000000pt" viewBox="0 0 100.000000 100.000000"
 preserveAspectRatio="xMidYMid meet">
<metadata>
Created by potrace 1.11, written by Peter Selinger 2001-2013
</metadata>
<g transform="translate(0.000000,100.000000) scale(0.100000,-0.100000)"
fill="#000000" stroke="none">
<path d="M5 987 c-3 -6 -4 -163 -3 -347 l3 -335 77 -3 c73 -3 76 -2 71 18 -5
17 -13 20 -59 20 l-54 0 0 310 0 310 293 0 c287 0 317 3 317 32 0 4 -144 8
-320 8 -248 0 -322 -3 -325 -13z"/>
<path d="M782 980 c11 -17 23 -20 95 -20 l83 0 0 -310 0 -310 -125 0 c-69 0
-125 -4 -125 -9 0 -25 33 -32 156 -29 l129 3 0 345 0 345 -113 3 c-111 3 -112
2 -100 -18z"/>
<path d="M688 968 c-9 -7 -28 -50 -42 -95 -25 -74 -30 -83 -64 -99 -20 -9 -88
-41 -150 -71 l-114 -54 -32 -72 c-18 -40 -48 -103 -65 -140 -38 -82 -38 -118
1 -131 35 -12 42 -4 93 113 53 119 57 122 80 59 29 -84 60 -124 136 -179 38
-28 68 -56 65 -63 -2 -6 -16 -46 -31 -89 -31 -90 -25 -127 18 -127 34 0 49 23
85 130 34 100 34 124 0 172 -10 14 -18 29 -18 32 0 3 64 7 143 8 l142 3 0 285
0 285 -66 3 c-60 3 -67 1 -72 -18 -5 -18 -1 -20 49 -20 l54 0 0 -250 0 -250
-69 0 c-62 0 -75 4 -137 40 -69 40 -78 51 -120 147 l-24 53 75 41 75 41 20 71
c40 137 42 153 24 172 -19 18 -35 19 -56 3z"/>
<path d="M65 927 c-3 -7 -4 -136 -3 -287 l3 -275 41 -3 c35 -3 42 0 47 17 4
18 0 21 -24 21 l-29 0 0 250 0 250 85 0 c66 0 93 4 122 20 l38 20 -138 0
c-102 0 -139 -3 -142 -13z"/>
<path d="M433 920 c51 -28 180 -26 185 3 3 15 -7 17 -110 17 l-113 0 38 -20z"/>
<path d="M309 871 c-39 -40 -39 -82 0 -122 20 -20 39 -29 61 -29 43 0 90 47
90 90 0 22 -9 41 -29 61 -40 39 -82 39 -122 0z"/>
<path d="M340 380 c-10 -18 -8 -20 26 -20 29 0 35 3 30 16 -3 9 -6 18 -6 20 0
14 -41 1 -50 -16z"/>
<path d="M316 324 c-3 -9 -6 -18 -6 -20 0 -2 34 -4 75 -4 l75 0 -20 20 c-26
26 -114 29 -124 4z"/>
</g>
</svg>
