<?xml version="1.0" standalone="no"?>
<!DOCTYPE svg PUBLIC "-//W3C//DTD SVG 20010904//EN"
 "http://www.w3.org/TR/2001/REC-SVG-20010904/DTD/svg10.dtd">
<svg version="1.0" xmlns="http://www.w3.org/2000/svg"
 width="1024.000000pt" height="1024.000000pt" viewBox="0 0 1024.000000 1024.000000"
 preserveAspectRatio="xMidYMid meet">
<metadata>
Created by potrace 1.11, written by Peter Selinger 2001-2013
</metadata>
<g transform="translate(0.000000,1024.000000) scale(0.100000,-0.100000)"
fill="#000000" stroke="none">
<path d="M3785 9594 c-446 -34 -814 -116 -1180 -261 -1136 -453 -1992 -1367
-2368 -2528 -393 -1210 -240 -2657 412 -3910 431 -827 1022 -1459 1520 -1625
35 -12 102 -26 148 -32 307 -42 677 160 815 444 l35 69 137 -368 c76 -202 152
-399 170 -438 52 -112 152 -196 304 -253 57 -22 84 -26 182 -26 102 -1 120 2
160 23 25 13 54 32 66 42 20 19 21 19 87 -11 131 -59 207 -75 367 -75 126 0
154 3 212 23 91 31 171 85 243 163 l60 65 45 -8 c65 -13 295 -3 365 16 33 9
103 37 155 63 170 83 292 230 321 387 12 61 14 66 38 66 35 0 122 51 155 91
39 46 82 135 101 209 24 91 22 257 -4 340 -41 132 -229 490 -445 850 -61 101
-113 188 -115 194 -2 5 9 0 25 -11 90 -64 257 -127 420 -160 124 -24 384 -24
473 1 114 31 205 92 231 156 7 17 14 30 15 30 2 0 27 -16 56 -36 339 -229 869
-229 1160 0 51 40 60 54 116 164 1 2 46 -3 101 -12 443 -71 915 100 1053 381
31 61 34 76 34 155 l0 88 45 5 c358 45 583 217 680 520 34 104 40 343 12 475
-40 197 -119 332 -244 420 -432 306 -1700 592 -3628 820 -146 18 -266 33 -267
34 -2 2 8 29 21 62 13 32 36 98 51 145 l28 86 151 58 c83 31 163 58 179 59 26
1 30 -6 89 -143 l62 -143 195 5 c311 8 538 57 760 163 372 178 603 449 747
878 43 127 73 263 124 561 59 349 95 474 187 659 79 158 215 350 375 528 l69
76 -68 16 c-828 187 -1926 -384 -2363 -1229 -29 -55 -53 -101 -55 -103 -2 -2
-54 13 -116 32 -63 20 -163 47 -223 61 -60 13 -113 28 -117 32 -4 4 -14 35
-24 68 -47 167 -167 416 -290 600 -366 551 -877 878 -1520 971 -99 14 -433 25
-530 18z m388 -1433 c257 -66 469 -235 586 -468 81 -162 112 -389 76 -564 -73
-361 -343 -631 -704 -704 -112 -23 -305 -16 -406 14 -164 49 -297 132 -416
259 -298 317 -315 809 -40 1154 137 173 355 297 574 328 88 12 240 3 330 -19z
m1981 -506 c436 -88 903 -333 1286 -674 l55 -49 -115 38 c-309 103 -659 145
-856 104 -42 -8 -158 -42 -258 -74 -244 -79 -329 -94 -481 -87 -66 3 -146 13
-179 22 -32 9 -60 14 -62 12 -3 -2 20 -21 49 -41 156 -108 348 -107 732 3 55
16 103 26 106 23 4 -4 9 -31 11 -59 4 -41 2 -53 -9 -53 -30 0 -258 -83 -384
-140 -74 -33 -198 -96 -276 -139 l-143 -78 -29 77 c-91 236 -95 540 -10 794
34 101 102 238 155 310 l36 49 122 -6 c68 -3 178 -17 250 -32z m-108 -1955
c631 -58 1444 -182 2204 -334 272 -55 682 -148 676 -153 -6 -6 -533 -58 -886
-87 -765 -64 -1098 -77 -1418 -52 -117 9 -222 16 -235 15 -12 0 64 -16 168
-35 429 -77 1432 -267 1453 -275 18 -7 22 -16 22 -52 0 -110 -155 -246 -346
-303 -77 -23 -240 -24 -303 0 -24 9 -44 16 -45 16 0 0 -1 -42 -1 -92 0 -116
-22 -164 -111 -247 -76 -71 -148 -113 -267 -153 -78 -26 -111 -32 -217 -35
-144 -6 -224 9 -320 57 l-60 30 0 -23 c0 -39 -49 -125 -93 -163 -98 -83 -270
-138 -437 -137 -160 0 -268 33 -367 112 l-53 41 21 -52 c11 -29 44 -111 74
-183 99 -243 108 -279 101 -375 -14 -204 -125 -472 -290 -700 -86 -120 -253
-289 -376 -382 -114 -86 -312 -190 -442 -232 -192 -62 -260 -71 -558 -71 -285
1 -378 9 -620 56 -966 188 -1834 795 -2347 1645 -79 129 -228 422 -220 430 2
3 34 -9 70 -25 136 -61 331 -114 522 -142 118 -18 462 -18 585 0 213 30 435
106 530 181 l39 31 108 -31 c245 -70 516 -110 748 -110 320 0 576 60 872 205
248 122 437 258 649 470 218 217 422 501 565 788 33 65 57 96 116 151 40 37
103 106 139 152 77 99 41 92 350 64z"/>
<path d="M3835 7816 c-129 -32 -239 -109 -313 -220 -63 -95 -83 -155 -89 -271
-9 -162 38 -285 152 -401 83 -84 162 -127 280 -151 269 -55 550 126 616 397
57 234 -55 484 -268 598 -112 59 -257 78 -378 48z m270 -111 c216 -72 222
-261 10 -341 -76 -29 -240 -26 -319 5 -102 41 -161 121 -142 196 16 64 113
133 219 155 58 12 172 5 232 -15z"/>
</g>
</svg>
