<?xml version="1.0" encoding="UTF-8" ?>
<!DOCTYPE svg PUBLIC "-//W3C//DTD SVG 1.1//EN" "http://www.w3.org/Graphics/SVG/1.1/DTD/svg11.dtd">
<svg width="100pt" height="100pt" viewBox="0 0 100 100" version="1.1" xmlns="http://www.w3.org/2000/svg">
<path fill="#ffffff" d=" M 0.00 0.00 L 100.00 0.00 L 100.00 74.57 C 99.46 72.01 98.60 69.54 97.61 67.12 C 97.14 48.15 97.49 29.17 97.44 10.19 C 65.81 10.20 34.19 10.20 2.56 10.19 C 2.63 36.73 2.62 63.27 2.56 89.81 C 21.22 89.81 39.88 89.76 58.54 89.83 C 62.16 95.25 68.01 98.88 74.41 100.00 L 0.00 100.00 L 0.00 0.00 Z" />
<path fill="#4a6d9c" d=" M 2.56 10.19 C 34.19 10.20 65.81 10.20 97.44 10.19 C 97.49 29.17 97.14 48.15 97.61 67.12 C 97.25 66.37 96.87 65.63 96.49 64.90 C 96.25 46.99 96.48 29.09 96.38 11.18 C 65.45 11.22 34.53 11.20 3.60 11.19 C 3.61 37.07 3.60 62.94 3.61 88.82 C 21.70 88.90 39.81 88.59 57.89 88.97 L 58.54 89.83 C 39.88 89.76 21.22 89.81 2.56 89.81 C 2.62 63.27 2.63 36.73 2.56 10.19 Z" />
<path fill="#ffffff" d=" M 3.60 11.19 C 34.53 11.20 65.45 11.22 96.38 11.18 C 96.48 29.09 96.25 46.99 96.49 64.90 C 93.41 61.06 89.55 57.81 84.90 56.09 C 84.99 51.96 85.08 47.83 85.07 43.70 C 84.93 36.67 85.04 29.63 85.00 22.60 C 61.67 22.45 38.34 22.45 15.01 22.60 C 14.95 29.66 15.07 36.71 14.92 43.77 C 14.94 48.32 15.02 52.88 15.02 57.43 C 15.02 60.86 15.02 64.30 15.01 67.73 C 15.00 71.00 15.02 74.27 15.06 77.54 C 28.33 77.56 41.60 77.35 54.87 77.63 L 55.21 79.94 L 55.22 80.01 L 55.22 80.06 C 55.27 80.65 55.35 81.83 55.39 82.42 C 56.05 84.66 56.87 86.86 57.89 88.97 C 39.81 88.59 21.70 88.90 3.61 88.82 C 3.60 62.94 3.61 37.07 3.60 11.19 Z" />
<path fill="#b5deff" d=" M 15.01 22.60 C 38.34 22.45 61.67 22.45 85.00 22.60 C 85.04 29.63 84.93 36.67 85.07 43.70 C 82.25 41.69 78.73 41.46 75.47 40.65 C 71.31 39.61 67.18 38.42 62.99 37.48 C 59.50 37.32 56.89 39.99 54.52 42.17 C 51.49 41.46 48.37 41.48 45.35 42.23 C 43.03 40.04 40.48 37.25 36.99 37.51 C 32.31 38.43 27.77 39.96 23.11 40.99 C 20.29 41.64 17.22 41.81 14.92 43.77 C 15.07 36.71 14.95 29.66 15.01 22.60 Z" />
<path fill="#d9f6ff" d=" M 23.11 40.99 C 27.77 39.96 32.31 38.43 36.99 37.51 C 40.48 37.25 43.03 40.04 45.35 42.23 C 48.37 41.48 51.49 41.46 54.52 42.17 C 56.89 39.99 59.50 37.32 62.99 37.48 C 67.18 38.42 71.31 39.61 75.47 40.65 C 78.73 41.46 82.25 41.69 85.07 43.70 C 85.08 47.83 84.99 51.96 84.90 56.09 C 80.79 54.81 76.40 54.64 72.18 55.45 C 69.12 53.68 66.08 51.86 63.07 50.00 C 58.30 51.77 53.51 53.49 48.74 55.24 C 44.77 52.66 40.82 50.07 36.85 47.50 C 29.58 50.82 22.34 54.21 15.02 57.43 C 15.02 52.88 14.94 48.32 14.92 43.77 C 17.22 41.81 20.29 41.64 23.11 40.99 Z" />
<path fill="#5d84b8" d=" M 15.02 57.43 C 22.34 54.21 29.58 50.82 36.85 47.50 C 40.82 50.07 44.77 52.66 48.74 55.24 C 52.60 57.73 56.44 60.28 60.21 62.92 C 59.05 64.48 58.00 66.11 57.05 67.81 C 43.04 67.67 29.02 67.81 15.01 67.73 C 15.02 64.30 15.02 60.86 15.02 57.43 Z" />
<path fill="#4a6d9c" d=" M 48.74 55.24 C 53.51 53.49 58.30 51.77 63.07 50.00 C 66.08 51.86 69.12 53.68 72.18 55.45 C 67.63 56.85 63.39 59.34 60.21 62.92 C 56.44 60.28 52.60 57.73 48.74 55.24 Z" />
<path fill="#ce5c5d" d=" M 72.18 55.45 C 76.40 54.64 80.79 54.81 84.90 56.09 C 89.55 57.81 93.41 61.06 96.49 64.90 C 96.87 65.63 97.25 66.37 97.61 67.12 C 98.60 69.54 99.46 72.01 100.00 74.57 L 100.00 81.30 C 97.99 90.78 90.14 98.65 80.44 100.00 L 74.41 100.00 C 68.01 98.88 62.16 95.25 58.54 89.83 L 57.89 88.97 C 56.87 86.86 56.05 84.66 55.39 82.42 C 55.96 81.74 56.53 81.05 57.10 80.37 C 57.48 92.29 70.76 100.96 81.99 98.09 C 91.58 96.13 98.93 86.80 98.60 77.02 C 98.50 67.20 90.67 58.13 80.93 56.71 C 72.42 55.12 63.42 59.62 59.19 67.07 C 56.83 70.98 56.58 75.65 55.88 80.04 C 55.71 80.03 55.39 80.02 55.22 80.01 L 55.21 79.94 L 54.87 77.63 C 54.93 74.25 55.71 70.91 57.05 67.81 C 58.00 66.11 59.05 64.48 60.21 62.92 C 63.39 59.34 67.63 56.85 72.18 55.45 Z" />
<path fill="#f78f8f" d=" M 59.19 67.07 C 63.42 59.62 72.42 55.12 80.93 56.71 C 90.67 58.13 98.50 67.20 98.60 77.02 C 98.93 86.80 91.58 96.13 81.99 98.09 C 70.76 100.96 57.48 92.29 57.10 80.37 C 56.53 81.05 55.96 81.74 55.39 82.42 C 55.35 81.83 55.27 80.65 55.22 80.06 L 55.22 80.01 C 55.39 80.02 55.71 80.03 55.88 80.04 C 56.58 75.65 56.83 70.98 59.19 67.07 Z" />
<path fill="#ffffff" d=" M 66.99 70.66 C 68.24 69.47 69.45 68.23 70.65 66.99 C 72.92 69.29 75.19 71.57 77.45 73.88 C 79.81 71.58 82.15 69.26 84.42 66.87 C 85.65 68.11 86.88 69.36 88.12 70.59 C 85.73 72.85 83.41 75.19 81.12 77.55 C 83.45 79.84 85.77 82.14 88.12 84.41 C 86.89 85.65 85.64 86.86 84.46 88.14 C 82.17 85.79 79.85 83.46 77.55 81.12 C 75.24 83.37 72.94 85.64 70.71 87.97 C 69.48 86.80 68.23 85.66 66.98 84.52 C 69.25 82.14 71.55 79.78 73.89 77.47 C 71.58 75.21 69.30 72.92 66.99 70.66 Z" />
<path fill="#7aadf0" d=" M 15.01 67.73 C 29.02 67.81 43.04 67.67 57.05 67.81 C 55.71 70.91 54.93 74.25 54.87 77.63 C 41.60 77.35 28.33 77.56 15.06 77.54 C 15.02 74.27 15.00 71.00 15.01 67.73 Z" />
<path fill="#ffffff" d=" M 80.44 100.00 C 90.14 98.65 97.99 90.78 100.00 81.30 L 100.00 100.00 L 80.44 100.00 Z" />
</svg>
