<?xml version="1.0" standalone="no"?>
<!DOCTYPE svg PUBLIC "-//W3C//DTD SVG 20010904//EN"
 "http://www.w3.org/TR/2001/REC-SVG-20010904/DTD/svg10.dtd">
<svg version="1.0" xmlns="http://www.w3.org/2000/svg"
 width="16.000000pt" height="16.000000pt" viewBox="0 0 16.000000 16.000000"
 preserveAspectRatio="xMidYMid meet">
<metadata>
Created by potrace 1.11, written by Peter Selinger 2001-2013
</metadata>
<g transform="translate(0.000000,16.000000) scale(0.003030,-0.003030)"
fill="#000000" stroke="none">
<path d="M2458 5055 c-2 -1 -31 -6 -66 -9 -35 -4 -109 -16 -165 -27 -56 -12
-111 -23 -122 -25 -111 -22 -336 -109 -485 -187 -418 -218 -746 -555 -954
-980 -96 -196 -151 -364 -192 -582 -43 -233 -41 -551 5 -802 31 -166 115 -412
197 -575 40 -80 135 -238 171 -283 13 -16 27 -35 31 -40 113 -154 247 -291
412 -421 162 -128 396 -258 589 -327 l95 -34 13 -64 c21 -106 63 -182 138
-252 39 -37 120 -84 165 -97 28 -7 39 -18 53 -50 25 -59 89 -124 155 -156 49
-25 69 -29 142 -29 73 0 93 4 142 28 64 31 140 109 160 163 8 24 20 37 38 40
14 4 54 22 90 41 122 66 210 190 226 318 8 60 7 60 73 80 34 10 64 22 67 27 3
4 12 8 20 8 25 0 233 102 331 164 168 104 267 183 407 322 150 150 251 282
356 465 121 211 222 489 255 699 4 25 9 54 11 65 25 125 25 583 -1 657 -2 7
-7 31 -10 53 -16 114 -76 319 -132 455 -205 494 -584 899 -1067 1134 -204 101
-426 168 -691 211 -40 7 -451 16 -457 10z"/>
</g>
</svg>
